<?xml version="1.0" encoding="UTF-8" standalone="no"?>
<!DOCTYPE svg PUBLIC "-//W3C//DTD SVG 1.1//EN"
 "http://www.w3.org/Graphics/SVG/1.1/DTD/svg11.dtd">
<!-- Generated by graphviz version 2.40.1 (20161225.0304)
 -->
<!-- Title: G Pages: 1 -->
<svg width="520pt" height="878pt"
 viewBox="0.00 0.00 520.48 878.00" xmlns="http://www.w3.org/2000/svg" xmlns:xlink="http://www.w3.org/1999/xlink">
<g id="graph0" class="graph" transform="scale(1 1) rotate(0) translate(4 874)">
<title>G</title>
<polygon fill="#ffffff" stroke="transparent" points="-4,4 -4,-874 516.4752,-874 516.4752,4 -4,4"/>
<g id="clust1" class="cluster">
<title>cluster_Global</title>
<path fill="none" stroke="#c0c0c0" d="M355.4752,-8C355.4752,-8 492.4752,-8 492.4752,-8 498.4752,-8 504.4752,-14 504.4752,-20 504.4752,-20 504.4752,-850 504.4752,-850 504.4752,-856 498.4752,-862 492.4752,-862 492.4752,-862 355.4752,-862 355.4752,-862 349.4752,-862 343.4752,-856 343.4752,-850 343.4752,-850 343.4752,-20 343.4752,-20 343.4752,-14 349.4752,-8 355.4752,-8"/>
<text text-anchor="middle" x="423.9752" y="-849.2" font-family="Times,serif" font-size="11.00" fill="#c0c0c0">Global</text>
</g>
<g id="clust2" class="cluster">
<title>cluster_\Koterov</title>
<path fill="none" stroke="#c0c0c0" d="M375.4752,-654C375.4752,-654 472.4752,-654 472.4752,-654 478.4752,-654 484.4752,-660 484.4752,-666 484.4752,-666 484.4752,-822 484.4752,-822 484.4752,-828 478.4752,-834 472.4752,-834 472.4752,-834 375.4752,-834 375.4752,-834 369.4752,-834 363.4752,-828 363.4752,-822 363.4752,-822 363.4752,-666 363.4752,-666 363.4752,-660 369.4752,-654 375.4752,-654"/>
<text text-anchor="middle" x="423.9752" y="-821.2" font-family="Times,serif" font-size="11.00" fill="#c0c0c0">Koterov</text>
</g>
<g id="clust3" class="cluster">
<title>cluster_\Koterov\Symdyanov</title>
<path fill="none" stroke="#c0c0c0" d="M383.4752,-662C383.4752,-662 464.4752,-662 464.4752,-662 470.4752,-662 476.4752,-668 476.4752,-674 476.4752,-674 476.4752,-794 476.4752,-794 476.4752,-800 470.4752,-806 464.4752,-806 464.4752,-806 383.4752,-806 383.4752,-806 377.4752,-806 371.4752,-800 371.4752,-794 371.4752,-794 371.4752,-674 371.4752,-674 371.4752,-668 377.4752,-662 383.4752,-662"/>
<text text-anchor="middle" x="423.9752" y="-793.2" font-family="Times,serif" font-size="11.00" fill="#c0c0c0">Symdyanov</text>
</g>
<g id="clust4" class="cluster">
<title>cluster_\Koterov\Symdyanov\Php7</title>
<path fill="none" stroke="#c0c0c0" d="M391.4752,-670C391.4752,-670 456.4752,-670 456.4752,-670 462.4752,-670 468.4752,-676 468.4752,-682 468.4752,-682 468.4752,-766 468.4752,-766 468.4752,-772 462.4752,-778 456.4752,-778 456.4752,-778 391.4752,-778 391.4752,-778 385.4752,-778 379.4752,-772 379.4752,-766 379.4752,-766 379.4752,-682 379.4752,-682 379.4752,-676 385.4752,-670 391.4752,-670"/>
<text text-anchor="middle" x="423.9752" y="-765.2" font-family="Times,serif" font-size="11.00" fill="#c0c0c0">Php7</text>
</g>
<g id="clust5" class="cluster">
<title>cluster_\Koterov\Symdyanov\Php7\Dumper</title>
<path fill="none" stroke="#c0c0c0" d="M399.4752,-678C399.4752,-678 448.4752,-678 448.4752,-678 454.4752,-678 460.4752,-684 460.4752,-690 460.4752,-690 460.4752,-738 460.4752,-738 460.4752,-744 454.4752,-750 448.4752,-750 448.4752,-750 399.4752,-750 399.4752,-750 393.4752,-750 387.4752,-744 387.4752,-738 387.4752,-738 387.4752,-690 387.4752,-690 387.4752,-684 393.4752,-678 399.4752,-678"/>
<text text-anchor="middle" x="423.9752" y="-737.2" font-family="Times,serif" font-size="11.00" fill="#c0c0c0">Dumper</text>
</g>
<!-- \\Koterov\\Symdyanov\\Php7\\Dumper\\Dumper -->
<g id="node1" class="node">
<title>\\Koterov\\Symdyanov\\Php7\\Dumper\\Dumper</title>
<polygon fill="none" stroke="#000000" points="452.4752,-722 395.4752,-722 395.4752,-686 452.4752,-686 452.4752,-722"/>
<text text-anchor="middle" x="423.9752" y="-701.2" font-family="Courier,monospace" font-size="11.00" fill="#000000">Dumper</text>
</g>
<!-- \\BodytypeSeeder -->
<g id="node2" class="node">
<title>\\BodytypeSeeder</title>
<polygon fill="none" stroke="#000000" points="479.4752,-592 368.4752,-592 368.4752,-556 479.4752,-556 479.4752,-592"/>
<text text-anchor="middle" x="423.9752" y="-571.2" font-family="Courier,monospace" font-size="11.00" fill="#000000">BodytypeSeeder</text>
</g>
<!-- \\Phinx\\Seed\\AbstractSeed -->
<g id="node14" class="node">
<title>\\Phinx\\Seed\\AbstractSeed</title>
<ellipse fill="none" stroke="#000000" cx="139.7376" cy="-493" rx="102.8821" ry="18"/>
<text text-anchor="middle" x="139.7376" y="-489.3" font-family="Times,serif" font-size="14.00" fill="#c0c0c0">\Phinx\Seed\AbstractSeed</text>
</g>
<!-- \\BodytypeSeeder&#45;&gt;\\Phinx\\Seed\\AbstractSeed -->
<g id="edge1" class="edge">
<title>\\BodytypeSeeder&#45;&gt;\\Phinx\\Seed\\AbstractSeed</title>
<path fill="none" stroke="#000000" d="M368.1581,-558.0937C320.8682,-544.6173 253.0609,-525.294 203.6129,-511.2027"/>
<polygon fill="none" stroke="#000000" points="204.556,-507.8322 193.9796,-508.4575 202.6375,-514.5642 204.556,-507.8322"/>
</g>
<!-- \\FurnishSeeder -->
<g id="node3" class="node">
<title>\\FurnishSeeder</title>
<polygon fill="none" stroke="#000000" points="475.9752,-538 371.9752,-538 371.9752,-502 475.9752,-502 475.9752,-538"/>
<text text-anchor="middle" x="423.9752" y="-517.2" font-family="Courier,monospace" font-size="11.00" fill="#000000">FurnishSeeder</text>
</g>
<!-- \\FurnishSeeder&#45;&gt;\\Phinx\\Seed\\AbstractSeed -->
<g id="edge2" class="edge">
<title>\\FurnishSeeder&#45;&gt;\\Phinx\\Seed\\AbstractSeed</title>
<path fill="none" stroke="#000000" d="M371.8416,-515.0478C335.039,-511.5519 284.5598,-506.7568 240.075,-502.5311"/>
<polygon fill="none" stroke="#000000" points="240.3794,-499.0444 230.0932,-501.583 239.7174,-506.013 240.3794,-499.0444"/>
</g>
<!-- \\ColorSeeder -->
<g id="node4" class="node">
<title>\\ColorSeeder</title>
<polygon fill="none" stroke="#000000" points="469.4752,-484 378.4752,-484 378.4752,-448 469.4752,-448 469.4752,-484"/>
<text text-anchor="middle" x="423.9752" y="-463.2" font-family="Courier,monospace" font-size="11.00" fill="#000000">ColorSeeder</text>
</g>
<!-- \\ColorSeeder&#45;&gt;\\Phinx\\Seed\\AbstractSeed -->
<g id="edge3" class="edge">
<title>\\ColorSeeder&#45;&gt;\\Phinx\\Seed\\AbstractSeed</title>
<path fill="none" stroke="#000000" d="M378.3075,-470.338C341.1725,-473.8655 287.4024,-478.9732 240.3066,-483.4469"/>
<polygon fill="none" stroke="#000000" points="239.6808,-479.9905 230.0566,-484.4205 240.3428,-486.9591 239.6808,-479.9905"/>
</g>
<!-- \\CreateFurnishTable -->
<g id="node5" class="node">
<title>\\CreateFurnishTable</title>
<polygon fill="none" stroke="#000000" points="492.9752,-106 354.9752,-106 354.9752,-70 492.9752,-70 492.9752,-106"/>
<text text-anchor="middle" x="423.9752" y="-85.2" font-family="Courier,monospace" font-size="11.00" fill="#000000">CreateFurnishTable</text>
</g>
<!-- \\Phinx\\Migration\\AbstractMigration -->
<g id="node15" class="node">
<title>\\Phinx\\Migration\\AbstractMigration</title>
<ellipse fill="none" stroke="#000000" cx="139.7376" cy="-169" rx="139.9756" ry="18"/>
<text text-anchor="middle" x="139.7376" y="-165.3" font-family="Times,serif" font-size="14.00" fill="#c0c0c0">\Phinx\Migration\AbstractMigration</text>
</g>
<!-- \\CreateFurnishTable&#45;&gt;\\Phinx\\Migration\\AbstractMigration -->
<g id="edge4" class="edge">
<title>\\CreateFurnishTable&#45;&gt;\\Phinx\\Migration\\AbstractMigration</title>
<path fill="none" stroke="#000000" d="M360.5405,-106.0772C315.0208,-119.049 253.7753,-136.5023 207.3345,-149.7367"/>
<polygon fill="none" stroke="#000000" points="206.3181,-146.3869 197.6602,-152.4936 208.2366,-153.1189 206.3181,-146.3869"/>
</g>
<!-- \\CreateDopTable -->
<g id="node6" class="node">
<title>\\CreateDopTable</title>
<polygon fill="none" stroke="#000000" points="479.4752,-52 368.4752,-52 368.4752,-16 479.4752,-16 479.4752,-52"/>
<text text-anchor="middle" x="423.9752" y="-31.2" font-family="Courier,monospace" font-size="11.00" fill="#000000">CreateDopTable</text>
</g>
<!-- \\CreateDopTable&#45;&gt;\\Phinx\\Migration\\AbstractMigration -->
<g id="edge5" class="edge">
<title>\\CreateDopTable&#45;&gt;\\Phinx\\Migration\\AbstractMigration</title>
<path fill="none" stroke="#000000" d="M368.0982,-51.4173C359.76,-54.3967 351.3315,-57.6272 343.4752,-61 283.9671,-86.5479 218.3138,-122.9322 178.0428,-146.2569"/>
<polygon fill="none" stroke="#000000" points="176.2362,-143.2587 169.3549,-151.3146 179.758,-149.3082 176.2362,-143.2587"/>
</g>
<!-- \\CreateColorTable -->
<g id="node7" class="node">
<title>\\CreateColorTable</title>
<polygon fill="none" stroke="#000000" points="486.4752,-322 361.4752,-322 361.4752,-286 486.4752,-286 486.4752,-322"/>
<text text-anchor="middle" x="423.9752" y="-301.2" font-family="Courier,monospace" font-size="11.00" fill="#000000">CreateColorTable</text>
</g>
<!-- \\CreateColorTable&#45;&gt;\\Phinx\\Migration\\AbstractMigration -->
<g id="edge6" class="edge">
<title>\\CreateColorTable&#45;&gt;\\Phinx\\Migration\\AbstractMigration</title>
<path fill="none" stroke="#000000" d="M366.372,-285.9628C358.6002,-283.157 350.7897,-280.1402 343.4752,-277 283.9671,-251.4521 218.3138,-215.0678 178.0428,-191.7431"/>
<polygon fill="none" stroke="#000000" points="179.758,-188.6918 169.3549,-186.6854 176.2362,-194.7413 179.758,-188.6918"/>
</g>
<!-- \\DopSeeder -->
<g id="node8" class="node">
<title>\\DopSeeder</title>
<polygon fill="none" stroke="#000000" points="462.4752,-430 385.4752,-430 385.4752,-394 462.4752,-394 462.4752,-430"/>
<text text-anchor="middle" x="423.9752" y="-409.2" font-family="Courier,monospace" font-size="11.00" fill="#000000">DopSeeder</text>
</g>
<!-- \\DopSeeder&#45;&gt;\\Phinx\\Seed\\AbstractSeed -->
<g id="edge7" class="edge">
<title>\\DopSeeder&#45;&gt;\\Phinx\\Seed\\AbstractSeed</title>
<path fill="none" stroke="#000000" d="M385.3458,-423.0083C338.5939,-436.3314 259.2076,-458.9543 203.3703,-474.8664"/>
<polygon fill="none" stroke="#000000" points="202.2373,-471.5499 193.5794,-477.6565 204.1558,-478.2818 202.2373,-471.5499"/>
</g>
<!-- \\CreatePowerTable -->
<g id="node9" class="node">
<title>\\CreatePowerTable</title>
<polygon fill="none" stroke="#000000" points="486.4752,-214 361.4752,-214 361.4752,-178 486.4752,-178 486.4752,-214"/>
<text text-anchor="middle" x="423.9752" y="-193.2" font-family="Courier,monospace" font-size="11.00" fill="#000000">CreatePowerTable</text>
</g>
<!-- \\CreatePowerTable&#45;&gt;\\Phinx\\Migration\\AbstractMigration -->
<g id="edge8" class="edge">
<title>\\CreatePowerTable&#45;&gt;\\Phinx\\Migration\\AbstractMigration</title>
<path fill="none" stroke="#000000" d="M361.2462,-190.0413C332.1562,-187.278 296.5323,-183.8941 262.4293,-180.6546"/>
<polygon fill="none" stroke="#000000" points="262.6686,-177.1617 252.3824,-179.7002 262.0066,-184.1303 262.6686,-177.1617"/>
</g>
<!-- \\CreateBodytypeTable -->
<g id="node10" class="node">
<title>\\CreateBodytypeTable</title>
<polygon fill="none" stroke="#000000" points="496.4752,-160 351.4752,-160 351.4752,-124 496.4752,-124 496.4752,-160"/>
<text text-anchor="middle" x="423.9752" y="-139.2" font-family="Courier,monospace" font-size="11.00" fill="#000000">CreateBodytypeTable</text>
</g>
<!-- \\CreateBodytypeTable&#45;&gt;\\Phinx\\Migration\\AbstractMigration -->
<g id="edge9" class="edge">
<title>\\CreateBodytypeTable&#45;&gt;\\Phinx\\Migration\\AbstractMigration</title>
<path fill="none" stroke="#000000" d="M351.1461,-148.9181C324.1765,-151.48 292.7994,-154.4605 262.6036,-157.3288"/>
<polygon fill="none" stroke="#000000" points="262.0409,-153.8665 252.4167,-158.2965 262.7029,-160.8351 262.0409,-153.8665"/>
</g>
<!-- \\SeriesSeeder -->
<g id="node11" class="node">
<title>\\SeriesSeeder</title>
<polygon fill="none" stroke="#000000" points="472.9752,-376 374.9752,-376 374.9752,-340 472.9752,-340 472.9752,-376"/>
<text text-anchor="middle" x="423.9752" y="-355.2" font-family="Courier,monospace" font-size="11.00" fill="#000000">SeriesSeeder</text>
</g>
<!-- \\SeriesSeeder&#45;&gt;\\Phinx\\Seed\\AbstractSeed -->
<g id="edge10" class="edge">
<title>\\SeriesSeeder&#45;&gt;\\Phinx\\Seed\\AbstractSeed</title>
<path fill="none" stroke="#000000" d="M374.9642,-373.0111C364.4538,-376.6252 353.4987,-380.6967 343.4752,-385 283.6251,-410.6947 217.559,-447.3508 177.351,-470.6577"/>
<polygon fill="none" stroke="#000000" points="175.5643,-467.6479 168.6858,-475.7063 179.0882,-473.6963 175.5643,-467.6479"/>
</g>
<!-- \\CreateSeriesTable -->
<g id="node12" class="node">
<title>\\CreateSeriesTable</title>
<polygon fill="none" stroke="#000000" points="489.4752,-268 358.4752,-268 358.4752,-232 489.4752,-232 489.4752,-268"/>
<text text-anchor="middle" x="423.9752" y="-247.2" font-family="Courier,monospace" font-size="11.00" fill="#000000">CreateSeriesTable</text>
</g>
<!-- \\CreateSeriesTable&#45;&gt;\\Phinx\\Migration\\AbstractMigration -->
<g id="edge11" class="edge">
<title>\\CreateSeriesTable&#45;&gt;\\Phinx\\Migration\\AbstractMigration</title>
<path fill="none" stroke="#000000" d="M360.5405,-231.9228C315.0208,-218.951 253.7753,-201.4977 207.3345,-188.2633"/>
<polygon fill="none" stroke="#000000" points="208.2366,-184.8811 197.6602,-185.5064 206.3181,-191.6131 208.2366,-184.8811"/>
</g>
<!-- \\PowerSeeder -->
<g id="node13" class="node">
<title>\\PowerSeeder</title>
<polygon fill="none" stroke="#000000" points="469.4752,-646 378.4752,-646 378.4752,-610 469.4752,-610 469.4752,-646"/>
<text text-anchor="middle" x="423.9752" y="-625.2" font-family="Courier,monospace" font-size="11.00" fill="#000000">PowerSeeder</text>
</g>
<!-- \\PowerSeeder&#45;&gt;\\Phinx\\Seed\\AbstractSeed -->
<g id="edge12" class="edge">
<title>\\PowerSeeder&#45;&gt;\\Phinx\\Seed\\AbstractSeed</title>
<path fill="none" stroke="#000000" d="M378.3557,-614.1447C366.8333,-610.2524 354.5824,-605.7685 343.4752,-601 283.6251,-575.3053 217.559,-538.6492 177.351,-515.3423"/>
<polygon fill="none" stroke="#000000" points="179.0882,-512.3037 168.6858,-510.2937 175.5643,-518.3521 179.0882,-512.3037"/>
</g>
</g>
</svg>
